<svg width="100" height="100" viewBox="0 0 100 100" xmlns="http://www.w3.org/2000/svg" version="1.1">
	<rect x="0" y="0" width="100" height="100" fill="rgb(0%,0%,0%)"></rect>
	<line x1="19" y1="9" x2="0" y2="30" stroke="rgb(100%, 100%, 100%)" stroke-linecap="round"></line>
	<line x1="0" y1="30" x2="39" y2="9" stroke="rgb(100%, 100%, 100%)" stroke-linecap="round"></line>
	<line x1="19" y1="9" x2="39" y2="9" stroke="rgb(100%, 100%, 100%)" stroke-linecap="round"></line>
	<line x1="39" y1="9" x2="73" y2="32" stroke="rgb(100%, 100%, 100%)" stroke-linecap="round"></line>
	<line x1="73" y1="32" x2="73" y2="50" stroke="rgb(100%, 100%, 100%)" stroke-linecap="round"></line>
	<line x1="73" y1="50" x2="46" y2="50" stroke="rgb(100%, 100%, 100%)" stroke-linecap="round"></line>
	<line x1="46" y1="50" x2="25" y2="17" stroke="rgb(100%, 100%, 100%)" stroke-linecap="round"></line>
	<line x1="69" y1="29" x2="89" y2="3" stroke="rgb(100%, 100%, 100%)" stroke-linecap="round"></line>
	<line x1="89" y1="3" x2="85" y2="38" stroke="rgb(100%, 100%, 100%)" stroke-linecap="round"></line>
	<line x1="89" y1="3" x2="100" y2="19" stroke="rgb(100%, 100%, 100%)" stroke-linecap="round"></line>
	<line x1="100" y1="19" x2="88" y2="14" stroke="rgb(100%, 100%, 100%)" stroke-linecap="round"></line>
	<line x1="85" y1="38" x2="95" y2="38" stroke="rgb(100%, 100%, 100%)" stroke-linecap="round"></line>
	<line x1="95" y1="46" x2="95" y2="38" stroke="rgb(100%, 100%, 100%)" stroke-linecap="round"></line>
	<line x1="95" y1="46" x2="91" y2="47" stroke="rgb(100%, 100%, 100%)" stroke-linecap="round"></line>
	<line x1="91" y1="47" x2="93" y2="45" stroke="rgb(100%, 100%, 100%)" stroke-linecap="round"></line>
	<line x1="95" y1="46" x2="89" y2="40" stroke="rgb(100%, 100%, 100%)" stroke-linecap="round"></line>
	<line x1="89" y1="40" x2="73" y2="32" stroke="rgb(100%, 100%, 100%)" stroke-linecap="round"></line>
	<line x1="89" y1="40" x2="46" y2="69" stroke="rgb(100%, 100%, 100%)" stroke-linecap="round"></line>
	<line x1="30" y1="100" x2="55" y2="50" stroke="rgb(100%, 100%, 100%)" stroke-linecap="round"></line>
	<line x1="30" y1="100" x2="61" y2="78" stroke="rgb(100%, 100%, 100%)" stroke-linecap="round"></line>
	<line x1="61" y1="78" x2="58" y2="61" stroke="rgb(100%, 100%, 100%)" stroke-linecap="round"></line>
</svg>